HIERARCHY
ROOT Hips
{
	OFFSET 0.000000 0.000000 0.000000
	CHANNELS 6 Xposition Yposition Zposition Xrotation Yrotation Zrotation
	JOINT LeftUpLeg_virtual
	{
		OFFSET 0.000000 0.000000 0.000000
		CHANNELS 3 Xrotation Yrotation Zrotation
		JOINT LeftUpLeg
		{
			OFFSET 15.427100 -6.655098 0.678600
			CHANNELS 3 Xrotation Yrotation Zrotation
			JOINT LeftLeg
			{
				OFFSET 4.081073 -39.591068 13.024000
				CHANNELS 3 Xrotation Yrotation Zrotation
				JOINT LeftFoot
				{
					OFFSET -4.081074 -37.707932 -15.979700
					CHANNELS 3 Xrotation Yrotation Zrotation
					JOINT LeftToeBase
					{
						OFFSET 5.346399 -15.068900 20.645000
						CHANNELS 3 Xrotation Yrotation Zrotation
						JOINT LeftToe_End
						{
							OFFSET 2.754700 0.931300 11.300900
							CHANNELS 3 Xrotation Yrotation Zrotation
							End Site
							{
								OFFSET 0 0 0
							}
						}
					}
				}
			}
		}
	}
	JOINT RightUpLeg_virtual
	{
		OFFSET 0.000000 0.000000 0.000000
		CHANNELS 3 Xrotation Yrotation Zrotation
		JOINT RightUpLeg
		{
			OFFSET -15.569500 -6.655098 0.678600
			CHANNELS 3 Xrotation Yrotation Zrotation
			JOINT RightLeg
			{
				OFFSET -4.081825 -39.591045 13.023800
				CHANNELS 3 Xrotation Yrotation Zrotation
				JOINT RightFoot
				{
					OFFSET 4.081824 -37.707954 -15.979600
					CHANNELS 3 Xrotation Yrotation Zrotation
					JOINT RightToeBase
					{
						OFFSET -5.346400 -15.068900 20.645000
						CHANNELS 3 Xrotation Yrotation Zrotation
						JOINT RightToe_End
						{
							OFFSET -2.754700 0.931300 11.300900
							CHANNELS 3 Xrotation Yrotation Zrotation
							End Site
							{
								OFFSET 0 0 0
							}
						}
					}
				}
			}
		}
	}
	JOINT Spine_virtual
	{
		OFFSET 0.000000 0.000000 0.000000
		CHANNELS 3 Xrotation Yrotation Zrotation
		JOINT Spine
		{
			OFFSET -0.279200 12.230698 -2.892100
			CHANNELS 3 Xrotation Yrotation Zrotation
			JOINT Spine1
			{
				OFFSET -0.232667 10.192268 -1.242267
				CHANNELS 3 Xrotation Yrotation Zrotation
				JOINT Spine1_split
				{
					OFFSET -0.232667 10.192268 -1.242267
					CHANNELS 3 Xrotation Yrotation Zrotation
					JOINT Spine2
					{
						OFFSET -0.232667 10.192268 -1.242267
						CHANNELS 3 Xrotation Yrotation Zrotation
						JOINT Neck_virtual
						{
							OFFSET 0.000000 0.000000 0.000000
							CHANNELS 3 Xrotation Yrotation Zrotation
							JOINT Neck
							{
								OFFSET -0.418800 17.814194 8.416900
								CHANNELS 3 Xrotation Yrotation Zrotation
								JOINT Head
								{
									OFFSET 0.000000 7.031097 3.806800
									CHANNELS 3 Xrotation Yrotation Zrotation
									JOINT HeadTop_End
									{
										OFFSET 0.000000 24.646606 12.978600
										CHANNELS 3 Xrotation Yrotation Zrotation
										End Site
										{
											OFFSET 0 0 0
										}
									}
								}
							}
						}
						JOINT LeftShoulder_virtual
						{
							OFFSET 0.000000 0.000000 0.000000
							CHANNELS 3 Xrotation Yrotation Zrotation
							JOINT LeftShoulder
							{
								OFFSET 8.476499 7.247704 -3.868750
								CHANNELS 3 Xrotation Yrotation Zrotation
								JOINT LeftShoulder_split
								{
									OFFSET 8.476499 7.247704 -3.868750
									CHANNELS 3 Xrotation Yrotation Zrotation
									JOINT LeftArm
									{
										OFFSET 9.308998 -2.777710 0.208600
										CHANNELS 3 Xrotation Yrotation Zrotation
										JOINT LeftForeArm
										{
											OFFSET 29.972298 0.000000 0.000000
											CHANNELS 3 Xrotation Yrotation Zrotation
											JOINT LeftHand
											{
												OFFSET 26.026505 0.000000 0.000000
												CHANNELS 3 Xrotation Yrotation Zrotation
												End Site
												{
													OFFSET 0 0 0
												}
											}
										}
									}
								}
							}
						}
						JOINT RightShoulder_virtual
						{
							OFFSET 0.000000 0.000000 0.000000
							CHANNELS 3 Xrotation Yrotation Zrotation
							JOINT RightShoulder
							{
								OFFSET -7.570500 7.247704 -3.868750
								CHANNELS 3 Xrotation Yrotation Zrotation
								JOINT RightShoulder_split
								{
									OFFSET -7.570500 7.247704 -3.868750
									CHANNELS 3 Xrotation Yrotation Zrotation
									JOINT RightArm
									{
										OFFSET -9.308998 -2.777710 0.208500
										CHANNELS 3 Xrotation Yrotation Zrotation
										JOINT RightForeArm
										{
											OFFSET -29.972300 0.000000 0.000000
											CHANNELS 3 Xrotation Yrotation Zrotation
											JOINT RightHand
											{
												OFFSET -26.026505 0.000000 0.000000
												CHANNELS 3 Xrotation Yrotation Zrotation
												End Site
												{
													OFFSET 0 0 0
												}
											}
										}
									}
								}
							}
						}
					}
				}
			}
		}
	}
}
MOTION
Frames: 5
Frame Time: 0.03333333
-249.634430 92.250710 -13.885311 0.000000 0.000000 0.000000 2.988333 0.474435 0.258948 -18.808285 16.872563 17.535015 19.534003 -6.176980 0.938682 -5.551310 -15.354595 -3.427630 -0.546449 -0.624846 1.379873 0.000000 0.000000 0.000000 1.892530 2.875289 -0.073626 -8.767877 -5.486302 -18.949841 21.067981 -1.204569 9.927437 -3.126105 -4.194979 5.339203 -8.333291 0.605775 0.043196 0.000000 0.000000 0.000000 3.445714 1.394281 -0.212204 0.766209 1.286037 1.435147 2.470430 0.940203 0.385479 0.753186 -1.846892 0.154125 0.000000 0.000000 0.000000 1.869729 0.579987 0.487189 3.608286 -0.539885 -1.449260 -7.104744 -6.118591 1.492516 0.000000 0.000000 0.000000 0.654469 0.494121 0.166320 0.841596 -0.812637 -10.325785 -2.331183 -0.990835 0.296745 8.380021 -17.355377 -62.894950 -0.380725 -22.062097 0.389579 0.000000 0.000000 0.000000 1.397754 0.612780 0.884701 0.591897 5.444807 13.753511 1.805197 3.088659 -3.069087 12.517840 8.417347 63.594799 1.020599 31.109654 0.315373 0.000000 0.000000 0.000000 
-249.514343 92.175087 -13.824909 0.000000 0.000000 0.000000 2.782262 0.508795 0.143189 -18.976904 16.904401 17.648152 19.704782 -6.289414 1.164520 -5.210002 -15.502861 -3.228467 -0.683684 -0.633815 1.307153 0.000000 0.000000 0.000000 1.643629 2.759598 -0.187649 -8.850096 -5.428232 -18.820962 21.484618 -0.931093 9.825436 -3.350064 -4.013667 5.631003 -8.394010 0.625629 -0.102925 0.000000 0.000000 0.000000 3.254075 1.334946 -0.260810 0.734419 1.320334 1.593829 2.560328 1.002689 0.396663 0.787612 -1.687760 0.185924 0.000000 0.000000 0.000000 1.756628 0.599623 0.530258 3.432829 -0.578752 -1.601711 -7.606149 -6.448236 1.596297 0.000000 0.000000 0.000000 0.664767 0.545776 0.178150 0.890000 -0.056697 -9.901717 -2.295860 -1.155053 0.449167 8.252726 -17.573238 -62.412035 -0.701387 -25.099987 0.267829 0.000000 0.000000 0.000000 1.452177 0.670741 0.894295 0.626176 5.343847 13.495139 1.704820 3.061566 -2.920612 13.077680 9.806412 61.880175 0.888966 34.155290 0.376150 0.000000 0.000000 0.000000 
-249.365845 92.151825 -13.753231 0.000000 0.000000 0.000000 2.582045 0.482090 0.052960 -19.166921 16.729189 17.657490 19.960780 -6.360360 1.426674 -4.521436 -15.681491 -3.024345 -0.913436 -0.657116 1.306927 0.000000 0.000000 0.000000 1.387830 2.665451 -0.265273 -8.875594 -5.376399 -18.601376 21.832614 -0.690933 9.555326 -3.780169 -3.862887 5.943291 -8.216495 0.651763 -0.213345 0.000000 0.000000 0.000000 3.116832 1.250721 -0.290359 0.633875 1.388073 1.759856 2.644974 1.111751 0.409705 0.882119 -1.549157 0.223295 0.000000 0.000000 0.000000 1.630660 0.674426 0.577038 3.417320 -0.638734 -1.733872 -8.111493 -6.783281 1.715277 0.000000 0.000000 0.000000 0.697807 0.653166 0.225844 0.891283 0.874155 -9.143575 -2.137223 -1.225656 0.526980 7.912735 -17.085230 -62.089753 -1.173880 -31.130315 -0.013674 0.000000 0.000000 0.000000 1.487290 0.777139 0.895783 0.686567 5.055641 12.945537 1.756831 3.064820 -2.629819 13.602812 10.939617 59.850687 0.775908 39.803248 0.338570 0.000000 0.000000 0.000000 
-249.228638 92.192993 -13.742138 0.000000 0.000000 0.000000 2.455765 0.516596 0.008074 -19.424143 16.349202 17.486565 20.241593 -6.335012 1.717347 -3.719529 -15.827473 -2.727177 -1.046889 -0.705702 1.435897 0.000000 0.000000 0.000000 1.185622 2.619263 -0.299144 -8.813745 -5.305191 -18.285134 21.989193 -0.519810 9.115302 -4.253920 -3.772622 6.315121 -7.821630 0.687446 -0.277427 0.000000 0.000000 0.000000 3.096035 1.160375 -0.290779 0.452905 1.469535 1.920129 2.709696 1.256238 0.405135 1.000046 -1.408895 0.209668 0.000000 0.000000 0.000000 1.525802 0.786399 0.597582 3.597137 -0.698053 -1.821467 -8.574374 -7.030283 1.884819 0.000000 0.000000 0.000000 0.746560 0.794731 0.285452 0.830876 1.852895 -8.188672 -1.916044 -1.158028 0.650393 7.032769 -15.873810 -62.058990 -1.696536 -39.714811 -0.475900 0.000000 0.000000 0.000000 1.498220 0.920184 0.869116 0.752535 4.592373 12.076210 1.872721 3.066059 -2.226961 13.705883 11.504192 57.834354 0.695680 47.856940 0.185327 0.000000 0.000000 0.000000 
-249.107666 92.261124 -13.846695 0.000000 0.000000 0.000000 2.469129 0.675250 0.003722 -19.846347 15.846121 17.082790 20.524835 -6.256395 1.970718 -3.026446 -15.896772 -2.356264 -1.070827 -0.793108 1.714272 0.000000 0.000000 0.000000 1.141336 2.662763 -0.281239 -8.813606 -5.212352 -17.955094 21.996257 -0.339987 8.540194 -4.693617 -3.717135 6.859628 -7.281016 0.746143 -0.301253 0.000000 0.000000 0.000000 3.221749 1.094881 -0.244499 0.211187 1.532052 2.042353 2.749191 1.416242 0.363856 1.158061 -1.399354 0.265096 0.000000 0.000000 0.000000 1.475257 0.916216 0.577713 3.880347 -0.732699 -1.837109 -9.026101 -7.080975 2.127526 0.000000 0.000000 0.000000 0.793333 0.945614 0.313701 0.718874 2.739085 -7.188503 -1.807840 -0.967628 0.747661 5.252965 -14.175110 -62.314220 -2.208217 -49.330491 -1.107077 0.000000 0.000000 0.000000 1.495373 1.072680 0.801807 0.803445 4.001833 10.982879 2.001668 2.993794 -1.808446 12.942380 11.352185 56.119648 0.613754 57.376540 -0.054274 0.000000 0.000000 0.000000 
